<?xml version="1.0" encoding="UTF-8"?>
<svg width="66px" height="46px" viewBox="0 0 66 46" version="1.1" xmlns="http://www.w3.org/2000/svg" xmlns:xlink="http://www.w3.org/1999/xlink">
    <!-- Generator: Sketch 55 (78076) - https://sketchapp.com -->
    <title>Google Pay </title>
    <desc>Created with Sketch.</desc>
    <g id="Assets" stroke="none" stroke-width="1" fill="none" fill-rule="evenodd">
        <g id="White" transform="translate(-103.000000, -137.000000)">
            <g id="Google-Pay-" transform="translate(103.000000, 137.000000)">
                <path d="M0.5,3.00044415 L0.5,42.9995558 C0.5,44.3749492 1.62546767,45.5 3.00738502,45.5 L62.992615,45.5 C64.3765124,45.5 65.5,44.3795764 65.5,42.9995558 L65.5,3.00044415 C65.5,1.62505085 64.3745323,0.5 62.992615,0.5 L3.00738502,0.5 C1.62348762,0.5 0.5,1.6204236 0.5,3.00044415 Z" id="Rectangle-Copy-20" stroke="#E6E7E8" fill="#FFFFFF"></path>
                <g id="Google_Pay_(GPay)_Logo-Copy" transform="translate(15.000000, 16.000000)">
                    <path d="M17.0256881,6.8464 L17.0256881,10.9064 L15.6963303,10.9064 L15.6963303,0.88 L19.2220183,0.88 C20.0720423,0.862796392 20.8939438,1.1752808 21.5050459,1.748 C22.1233405,2.28684664 22.4710494,3.05834229 22.4587156,3.864 C22.4764245,4.67415762 22.1280961,5.45141089 21.5050459,5.992 C20.8885321,6.5616 20.1275229,6.84613333 19.2220183,6.8456 L17.0256881,6.8456 L17.0256881,6.8464 Z M17.0256881,2.1144 L17.0256881,5.6144 L19.2550459,5.6144 C19.7492359,5.62859282 20.2267295,5.44040099 20.570367,5.096 C20.9119195,4.77426547 21.1046197,4.33234676 21.1046197,3.8708 C21.1046197,3.40925324 20.9119195,2.96733453 20.570367,2.6456 C20.2308972,2.29379726 19.7519218,2.10006893 19.2550459,2.1136 L17.0256881,2.1136 L17.0256881,2.1144 Z" id="Shape" fill="#5F6368" fill-rule="nonzero"></path>
                    <path d="M25.5220183,3.8224 C26.5045872,3.8224 27.2801835,4.0768 27.8488073,4.5856 C28.4174312,5.0944 28.7014679,5.792 28.7009174,6.6784 L28.7009174,10.9064 L27.4293578,10.9064 L27.4293578,9.9544 L27.3715596,9.9544 C26.8211009,10.7384 26.0889908,11.1304 25.1752294,11.1304 C24.3952294,11.1304 23.7426606,10.9064 23.2175229,10.4584 C22.7071368,10.0419771 22.4177506,9.42478145 22.4298165,8.7784 C22.4298165,8.06853333 22.7066972,7.504 23.2604587,7.0848 C23.8142202,6.6656 24.5534862,6.45546667 25.4782569,6.4544 C26.2676147,6.4544 26.9177064,6.5944 27.4285321,6.8744 L27.4285321,6.58 C27.4315804,6.13936992 27.2299606,5.72076888 26.8794495,5.44 C26.5279098,5.13270243 26.0697678,4.9650302 25.5963303,4.9704 C24.8537615,4.9704 24.2661468,5.27386667 23.8334862,5.8808 L22.6626606,5.1664 C23.3066972,4.2704 24.2598165,3.8224 25.5220183,3.8224 Z M23.8021101,8.8064 C23.8003017,9.13899307 23.964555,9.45191514 24.2430275,9.6464 C24.5370369,9.87047597 24.9019595,9.98918037 25.2759633,9.9824 C25.8369319,9.98149171 26.3746512,9.7651556 26.7712844,9.3808 C27.2116514,8.9792 27.4318349,8.508 27.4318349,7.9672 C27.0173394,7.6472 26.4393578,7.4872 25.6978899,7.4872 C25.1578899,7.4872 24.7076147,7.61333333 24.3470642,7.8656 C23.9829358,8.1216 23.8021101,8.4328 23.8021101,8.8064 L23.8021101,8.8064 Z" id="Shape" fill="#5F6368" fill-rule="nonzero"></path>
                    <polygon id="Path" fill="#5F6368" points="36 4.0464 31.5611009 13.9304 30.1888073 13.9304 31.836055 10.472 28.9172477 4.0464 30.3622018 4.0464 32.4718349 8.9744 32.5007339 8.9744 34.5525688 4.0464"></polygon>
                    <path d="M11.6537615,5.9712 C11.6542628,5.57868158 11.6200087,5.186845 11.5513761,4.8 L5.94495413,4.8 L5.94495413,7.0184 L9.15605505,7.0184 C9.02327704,7.73436167 8.59435853,8.36668207 7.9687156,8.7688 L7.9687156,10.2088 L9.88513761,10.2088 C11.0072477,9.2064 11.6537615,7.724 11.6537615,5.9712 Z" id="Path" fill="#4285F4"></path>
                    <path d="M5.94495413,11.6 C7.54926606,11.6 8.90009174,11.0896 9.88513761,10.2096 L7.9687156,8.7696 C7.4353211,9.12 6.74834862,9.32 5.94495413,9.32 C4.39431193,9.32 3.07816514,8.3072 2.60752294,6.9424 L0.633302752,6.9424 L0.633302752,8.4264 C1.64242064,10.3719656 3.69761456,11.5999008 5.94495413,11.6 Z" id="Path" fill="#34A853"></path>
                    <path d="M2.60752294,6.9424 C2.35871129,6.22723552 2.35871129,5.45276448 2.60752294,4.7376 L2.60752294,3.2536 L0.633302752,3.2536 C-0.210739659,4.88090232 -0.210739659,6.79909768 0.633302752,8.4264 L2.60752294,6.9424 Z" id="Path" fill="#FBBC04"></path>
                    <path d="M5.94495413,2.36 C6.79276034,2.34658001 7.6119662,2.65694098 8.22550459,3.224 L8.22550459,3.224 L9.92229358,1.58 C8.84635269,0.60086065 7.42096996,0.0632967516 5.94495413,0.08 C3.69761456,0.0800992382 1.64242064,1.30803439 0.633302752,3.2536 L2.60752294,4.7376 C3.07816514,3.3728 4.39431193,2.36 5.94495413,2.36 Z" id="Path" fill="#EA4335"></path>
                </g>
            </g>
        </g>
    </g>
</svg>